STARTFONT 2.1
FONT -Copyright © 2011 - 2012 Linotype Corp., www.linotype.com. All rights reserved. This font software may not be reproduced, modified, disclosed or transferred without the express written approval of Linotype Corp. Neue Haas Grotesk is a trademark of Linotype Corp. registered in the U.S. Patent and Trademark Office and may be registered in certain other jurisdictions in the name of Linotype Corp. or its licensee Linotype GmbH. This typeface is original artwork of Christian Schwartz. The design may be protected in certain jurisdictions.
SIZE 14 75 75
FONTBOUNDINGBOX 14 14 0 0
STARTPROPERTIES 2
FONT_ASCENT 75
FONT_DESCENT 0
ENDPROPERTIES
CHARS 256
STARTCHAR space
ENCODING 32
BBX 10 0 0 0
BITMAP
ENDCHAR
STARTCHAR U+0021
ENCODING 33
BBX 4 10 0 0
BITMAP
06
06
06
06
04
04
04
00
00
06
ENDCHAR
STARTCHAR U+0022
ENCODING 34
BBX 5 10 0 0
BITMAP
0A
0A
0A
00
00
00
00
00
00
00
ENDCHAR
STARTCHAR U+0023
ENCODING 35
BBX 9 10 0 0
BITMAP
24
24
24
FE
48
48
FE
48
48
48
ENDCHAR
STARTCHAR U+0024
ENCODING 36
BBX 9 12 0 0
BITMAP
10
7C
D6
92
D0
78
16
12
92
D6
7C
10
ENDCHAR
STARTCHAR U+0025
ENCODING 37
BBX 13 10 0 0
BITMAP
610
910
920
920
95C
ED2
A2
122
112
21C
ENDCHAR
STARTCHAR U+0026
ENCODING 38
BBX 10 10 0 0
BITMAP
70
98
98
D0
60
1A4
114
10C
10C
F6
ENDCHAR
STARTCHAR U+0027
ENCODING 39
BBX 3 10 0 0
BITMAP
02
02
02
00
00
00
00
00
00
00
ENDCHAR
STARTCHAR U+0028
ENCODING 40
BBX 5 13 0 0
BITMAP
02
06
04
04
0C
0C
0C
0C
0C
04
04
02
02
ENDCHAR
STARTCHAR U+0029
ENCODING 41
BBX 5 13 0 0
BITMAP
08
08
04
04
04
06
06
06
04
04
0C
08
18
ENDCHAR
STARTCHAR U+002A
ENCODING 42
BBX 6 10 0 0
BITMAP
08
1E
0C
16
00
00
00
00
00
00
ENDCHAR
STARTCHAR U+002B
ENCODING 43
BBX 8 8 0 0
BITMAP
08
08
08
7F
08
08
08
00
ENDCHAR
STARTCHAR U+002C
ENCODING 44
BBX 3 4 0 0
BITMAP
02
02
02
00
ENDCHAR
STARTCHAR U+002D
ENCODING 45
BBX 5 5 0 0
BITMAP
0F
00
00
00
00
ENDCHAR
STARTCHAR U+002E
ENCODING 46
BBX 3 2 0 0
BITMAP
02
02
ENDCHAR
STARTCHAR U+002F
ENCODING 47
BBX 8 13 0 0
BITMAP
04
08
08
18
10
10
30
20
60
40
40
C0
80
ENDCHAR
STARTCHAR U+0030
ENCODING 48
BBX 9 10 0 0
BITMAP
3C
46
C2
82
83
83
82
C2
46
3C
ENDCHAR
STARTCHAR U+0031
ENCODING 49
BBX 6 10 0 0
BITMAP
04
0C
1C
04
04
04
04
04
04
04
ENDCHAR
STARTCHAR U+0032
ENCODING 50
BBX 8 11 0 0
BITMAP
3C
62
43
43
02
0E
18
20
40
7F
00
ENDCHAR
STARTCHAR U+0033
ENCODING 51
BBX 9 10 0 0
BITMAP
78
C4
86
04
38
06
02
182
86
7C
ENDCHAR
STARTCHAR U+0034
ENCODING 52
BBX 9 10 0 0
BITMAP
0C
0C
1C
3C
6C
4C
CC
FE
0C
0C
ENDCHAR
STARTCHAR U+0035
ENCODING 53
BBX 8 10 0 0
BITMAP
3E
60
40
5C
62
03
03
43
62
3C
ENDCHAR
STARTCHAR U+0036
ENCODING 54
BBX 9 10 0 0
BITMAP
3C
46
80
B8
C6
82
82
82
44
38
ENDCHAR
STARTCHAR U+0037
ENCODING 55
BBX 8 10 0 0
BITMAP
FE
02
04
08
18
10
10
30
20
20
ENDCHAR
STARTCHAR U+0038
ENCODING 56
BBX 9 10 0 0
BITMAP
7C
C6
86
C4
38
C6
82
82
C6
7C
ENDCHAR
STARTCHAR U+0039
ENCODING 57
BBX 9 10 0 0
BITMAP
78
C4
86
82
86
C6
7A
86
C4
78
ENDCHAR
STARTCHAR U+003A
ENCODING 58
BBX 3 6 0 0
BITMAP
02
02
00
00
02
02
ENDCHAR
STARTCHAR U+003B
ENCODING 59
BBX 3 9 0 0
BITMAP
02
00
00
00
02
02
02
02
00
ENDCHAR
STARTCHAR U+003C
ENCODING 60
BBX 8 9 0 0
BITMAP
06
38
40
30
08
06
00
00
00
ENDCHAR
STARTCHAR U+003D
ENCODING 61
BBX 8 6 0 0
BITMAP
7F
00
00
7F
00
00
ENDCHAR
STARTCHAR U+003E
ENCODING 62
BBX 8 9 0 0
BITMAP
60
1C
02
0C
30
40
00
00
00
ENDCHAR
STARTCHAR U+003F
ENCODING 63
BBX 8 10 0 0
BITMAP
3C
46
C2
06
0C
18
10
00
00
10
ENDCHAR
STARTCHAR U+0040
ENCODING 64
BBX 13 12 0 0
BITMAP
1F0
30C
406
8F2
912
912
912
932
8DC
C00
610
1F0
ENDCHAR
STARTCHAR U+0041
ENCODING 65
BBX 10 10 0 0
BITMAP
30
30
58
48
C8
8C
FC
186
106
302
ENDCHAR
STARTCHAR U+0042
ENCODING 66
BBX 10 10 0 0
BITMAP
1FC
186
186
184
1F8
186
182
182
186
1FC
ENDCHAR
STARTCHAR U+0043
ENCODING 67
BBX 11 10 0 0
BITMAP
F8
18C
306
200
200
200
206
306
18C
F8
ENDCHAR
STARTCHAR U+0044
ENCODING 68
BBX 10 10 0 0
BITMAP
1F8
186
182
182
183
183
182
182
184
1F8
ENDCHAR
STARTCHAR U+0045
ENCODING 69
BBX 9 10 0 0
BITMAP
FE
C0
C0
C0
FE
C0
C0
C0
C0
FF
ENDCHAR
STARTCHAR U+0046
ENCODING 70
BBX 9 10 0 0
BITMAP
FE
C0
C0
C0
FC
C0
C0
C0
C0
C0
ENDCHAR
STARTCHAR U+0047
ENCODING 71
BBX 11 10 0 0
BITMAP
F8
18C
306
200
200
21E
202
306
186
FA
ENDCHAR
STARTCHAR U+0048
ENCODING 72
BBX 10 10 0 0
BITMAP
182
182
182
182
1FE
182
182
182
182
182
ENDCHAR
STARTCHAR U+0049
ENCODING 73
BBX 4 10 0 0
BITMAP
06
06
06
06
06
06
06
06
06
06
ENDCHAR
STARTCHAR U+004A
ENCODING 74
BBX 8 10 0 0
BITMAP
06
06
06
06
06
06
06
C6
44
38
ENDCHAR
STARTCHAR U+004B
ENCODING 75
BBX 10 10 0 0
BITMAP
186
18C
198
130
170
190
198
18C
184
182
ENDCHAR
STARTCHAR U+004C
ENCODING 76
BBX 8 10 0 0
BITMAP
60
60
60
60
60
60
60
60
60
7F
ENDCHAR
STARTCHAR U+004D
ENCODING 77
BBX 12 10 0 0
BITMAP
606
706
50E
50A
58A
492
492
452
462
462
ENDCHAR
STARTCHAR U+004E
ENCODING 78
BBX 10 10 0 0
BITMAP
182
1C2
142
162
132
112
11A
10E
106
106
ENDCHAR
STARTCHAR U+004F
ENCODING 79
BBX 12 10 0 0
BITMAP
1F0
30C
604
406
406
406
406
604
30C
1F0
ENDCHAR
STARTCHAR U+0050
ENCODING 80
BBX 9 10 0 0
BITMAP
FC
C2
C3
C3
C2
FC
C0
C0
C0
C0
ENDCHAR
STARTCHAR U+0051
ENCODING 81
BBX 12 11 0 0
BITMAP
1F0
30C
604
406
406
406
406
624
31C
1F4
02
ENDCHAR
STARTCHAR U+0052
ENCODING 82
BBX 10 10 0 0
BITMAP
1FC
186
182
182
186
1F8
184
186
186
182
ENDCHAR
STARTCHAR U+0053
ENCODING 83
BBX 9 10 0 0
BITMAP
7C
C6
82
C0
78
0E
03
83
C2
7C
ENDCHAR
STARTCHAR U+0054
ENCODING 84
BBX 9 10 0 0
BITMAP
1FF
10
10
10
10
10
10
10
10
10
ENDCHAR
STARTCHAR U+0055
ENCODING 85
BBX 10 10 0 0
BITMAP
102
102
102
102
102
102
102
106
184
78
ENDCHAR
STARTCHAR U+0056
ENCODING 86
BBX 10 10 0 0
BITMAP
306
106
184
8C
88
C8
58
50
70
30
ENDCHAR
STARTCHAR U+0057
ENCODING 87
BBX 14 10 0 0
BITMAP
30C2
10C6
1146
1944
1924
B2C
A28
E28
618
610
ENDCHAR
STARTCHAR U+0058
ENCODING 88
BBX 10 10 0 0
BITMAP
186
8C
C8
50
30
70
58
C8
18C
106
ENDCHAR
STARTCHAR U+0059
ENCODING 89
BBX 10 10 0 0
BITMAP
106
184
8C
C8
58
30
20
20
20
20
ENDCHAR
STARTCHAR U+005A
ENCODING 90
BBX 9 10 0 0
BITMAP
FE
06
04
08
18
30
60
40
C0
FF
ENDCHAR
STARTCHAR U+005B
ENCODING 91
BBX 5 13 0 0
BITMAP
0E
0C
0C
0C
0C
0C
0C
0C
0C
0C
0C
0C
0E
ENDCHAR
STARTCHAR U+005C
ENCODING 92
BBX 7 13 0 0
BITMAP
60
20
20
30
10
18
08
08
0C
04
04
02
02
ENDCHAR
STARTCHAR U+005D
ENCODING 93
BBX 5 13 0 0
BITMAP
0E
06
06
06
06
06
06
06
06
06
06
06
0E
ENDCHAR
STARTCHAR U+005E
ENCODING 94
BBX 7 10 0 0
BITMAP
18
14
36
22
00
00
00
00
00
00
ENDCHAR
STARTCHAR U+005F
ENCODING 95
BBX 7 3 0 0
BITMAP
00
00
7E
ENDCHAR
STARTCHAR U+0060
ENCODING 96
BBX 8 11 0 0
BITMAP
30
10
00
00
00
00
00
00
00
00
00
ENDCHAR
STARTCHAR U+0061
ENCODING 97
BBX 8 8 0 0
BITMAP
3C
46
02
1E
62
42
46
7B
ENDCHAR
STARTCHAR U+0062
ENCODING 98
BBX 8 10 0 0
BITMAP
40
40
5C
62
43
43
43
43
62
5C
ENDCHAR
STARTCHAR U+0063
ENCODING 99
BBX 8 8 0 0
BITMAP
3C
66
42
40
40
42
62
3C
ENDCHAR
STARTCHAR U+0064
ENCODING 100
BBX 8 10 0 0
BITMAP
02
02
3A
66
42
42
42
42
66
3A
ENDCHAR
STARTCHAR U+0065
ENCODING 101
BBX 8 8 0 0
BITMAP
3C
62
42
7F
40
40
62
3C
ENDCHAR
STARTCHAR U+0066
ENCODING 102
BBX 5 10 0 0
BITMAP
06
04
1E
04
04
04
04
04
04
04
ENDCHAR
STARTCHAR U+0067
ENCODING 103
BBX 8 11 0 0
BITMAP
3E
66
42
42
42
42
66
3E
02
42
3C
ENDCHAR
STARTCHAR U+0068
ENCODING 104
BBX 8 10 0 0
BITMAP
40
40
5C
66
42
42
42
42
42
42
ENDCHAR
STARTCHAR U+0069
ENCODING 105
BBX 3 10 0 0
BITMAP
02
00
02
02
02
02
02
02
02
02
ENDCHAR
STARTCHAR U+006A
ENCODING 106
BBX 4 13 0 0
BITMAP
04
04
04
04
04
04
04
04
04
04
04
04
0C
ENDCHAR
STARTCHAR U+006B
ENCODING 107
BBX 8 10 0 0
BITMAP
40
40
46
4C
58
50
78
4C
44
46
ENDCHAR
STARTCHAR U+006C
ENCODING 108
BBX 3 10 0 0
BITMAP
02
02
02
02
02
02
02
02
02
02
ENDCHAR
STARTCHAR U+006D
ENCODING 109
BBX 12 8 0 0
BITMAP
5DC
666
462
462
462
462
462
462
ENDCHAR
STARTCHAR U+006E
ENCODING 110
BBX 8 8 0 0
BITMAP
5C
66
42
42
42
42
42
42
ENDCHAR
STARTCHAR U+006F
ENCODING 111
BBX 8 8 0 0
BITMAP
3C
62
43
43
43
43
62
3C
ENDCHAR
STARTCHAR U+0070
ENCODING 112
BBX 8 11 0 0
BITMAP
5C
62
43
41
41
43
62
5C
40
40
40
ENDCHAR
STARTCHAR U+0071
ENCODING 113
BBX 8 11 0 0
BITMAP
3A
66
42
42
42
42
66
3E
02
02
02
ENDCHAR
STARTCHAR U+0072
ENCODING 114
BBX 5 8 0 0
BITMAP
0B
0C
08
08
08
08
08
08
ENDCHAR
STARTCHAR U+0073
ENCODING 115
BBX 7 8 0 0
BITMAP
1E
22
20
3C
07
63
23
1E
ENDCHAR
STARTCHAR U+0074
ENCODING 116
BBX 5 10 0 0
BITMAP
04
04
1E
04
04
04
04
04
04
06
ENDCHAR
STARTCHAR U+0075
ENCODING 117
BBX 8 8 0 0
BITMAP
42
42
42
42
42
42
66
3A
ENDCHAR
STARTCHAR U+0076
ENCODING 118
BBX 7 8 0 0
BITMAP
63
22
22
26
14
14
14
08
ENDCHAR
STARTCHAR U+0077
ENCODING 119
BBX 11 8 0 0
BITMAP
623
262
252
256
354
194
18C
188
ENDCHAR
STARTCHAR U+0078
ENCODING 120
BBX 8 8 0 0
BITMAP
46
24
38
18
18
2C
64
42
ENDCHAR
STARTCHAR U+0079
ENCODING 121
BBX 8 11 0 0
BITMAP
C2
46
44
64
2C
28
38
18
10
30
60
ENDCHAR
STARTCHAR U+007A
ENCODING 122
BBX 7 8 0 0
BITMAP
3F
06
04
0C
18
10
30
3F
ENDCHAR
STARTCHAR U+007B
ENCODING 123
BBX 5 13 0 0
BITMAP
06
04
04
04
04
04
18
04
04
04
04
04
06
ENDCHAR
STARTCHAR U+007C
ENCODING 124
BBX 4 13 0 0
BITMAP
04
04
04
04
04
04
04
04
04
04
04
04
04
ENDCHAR
STARTCHAR U+007D
ENCODING 125
BBX 5 13 0 0
BITMAP
0C
04
04
04
04
04
02
04
04
04
04
04
0C
ENDCHAR
STARTCHAR U+007E
ENCODING 126
BBX 6 6 0 0
BITMAP
1A
16
00
00
00
00
ENDCHAR
ENDFONT
